<svg id="syllable_logo" data-name="syllable_logo" xmlns="http://www.w3.org/2000/svg" viewBox="0 0 430.82 108.85"><title>syllable logo</title><path d="M14.6,64.33c1,7.51,6.53,11.76,15.46,11.76,7,0,11.34-2.55,11.34-7.09,0-4.25-2.83-6.09-9.07-7.08L22.4,60.21C9.07,58.09,1.56,53.13,1.56,41.5c0-11.91,10.21-20.13,26.09-20.13,17.3,0,27.5,7.79,28.64,21.69l-13.75.57C41.4,36.25,36.3,32.57,27.36,32.57c-6.09,0-10.06,2.69-10.06,7.09,0,3.68,2.41,5.67,7,6.38l11.91,2c13.18,2.13,21,7.66,21,19.43,0,12.76-11.06,19.85-27.22,19.85C13.61,87.3,1.13,80.21,0,64.89Z"/><path d="M73.56,108.85l9.65-23L57.26,23.07H75.12l17,42.67h.57l16.87-42.67h16.59L90.29,108.85Z"/><path d="M149.93,0V108.85h-17V0Z"/><path d="M181.26,0V108.85h-17V0Z"/><path d="M276.41,85.59h-13V0h17V35.12c2.84-7.66,10.35-13.75,21.55-13.75,18.43,0,28.22,14.6,28.22,33s-9.79,32.9-28.5,32.9c-10.92,0-18.86-6-22.12-13.76Zm3.83-30.05C280.24,67,287.05,74,296.69,74c10.77,0,16.3-7.8,16.3-19.57s-5.53-19.71-16.3-19.71c-9.64,0-16.45,7.09-16.45,18.44Z"/><path d="M357.16,0V108.85h-17V0Z"/><path d="M430.54,64.75c-3.12,14.18-14.18,22.55-30.2,22.55-19.28,0-33.18-12.34-33.18-32s14-33.88,32.75-33.88c20.42,0,30.91,14.17,30.91,31.19V58H383.89c.57,10.2,7.8,16.44,17,16.44,8.36,0,13.47-3.68,15.88-11.06ZM414.23,49c-.28-8.08-5-15.17-14.46-15.17S385.17,40.65,384.18,49Z"/><path d="M216.55,49a71.61,71.61,0,0,1,17.12,2.43V45.3q0-6.51-2.62-9.64c-1.75-2.08-4.6-3.13-8.56-3.13s-7,.79-9.13,2.36a7.86,7.86,0,0,0-3.19,6.71H193.69q0-10.6,7.47-15.33t20.89-4.72q19.15,0,24.78,13.41a28.22,28.22,0,0,1,1.91,10.86V85.29H235.59L234.44,77q-6,10.09-18.4,10.09-12,0-18.65-5.87A18.48,18.48,0,0,1,191.26,67q0-8.62,6.77-13.29T216.55,49Zm17.12,12a54,54,0,0,0-14-2.05q-12.27,0-12.26,8.18a7.66,7.66,0,0,0,2.81,5.94q2.81,2.49,9,2.49a13.65,13.65,0,0,0,10.22-4.15A15.33,15.33,0,0,0,233.67,61Z"/></svg>